<svg xmlns="http://www.w3.org/2000/svg" viewBox="0 0 48 48" width="48" height="48">
  <defs>
    <linearGradient id="bg" x1="0" y1="0" x2="0" y2="1">
      <stop offset="0" stop-color="#12303f"/>
      <stop offset="1" stop-color="#07111a"/>
    </linearGradient>
    <linearGradient id="brass" gradientUnits="userSpaceOnUse" x1="24" y1="5.00" x2="24" y2="43.00">
      <stop offset="0" stop-color="#f0c887"/>
      <stop offset="1" stop-color="#d69a4c"/>
    </linearGradient>
  </defs>
  <rect x="0" y="0" width="48" height="48" rx="11" fill="url(#bg)"/>
  <g transform="translate(6.751,5.000) scale(0.03242) translate(-112,-49)">
    <g transform="translate(0,1280) scale(0.1,-0.1)" fill="url(#brass)">
      <path d="M7450 12299 c-1429 -80 -2914 -650 -4065 -1558 -207 -164 -323 -268
-551 -495 -524 -526 -839 -992 -1149 -1706 -323 -742 -506 -1495 -556 -2283
-15 -228 -6 -834 15 -1044 113 -1140 444 -2238 1072 -3556 118 -249 353 -707
486 -947 l63 -115 3080 -2 3080 -2 -145 53 c-163 59 -390 156 -525 223 -49 25
-91 46 -92 47 -1 1 9 24 23 51 59 118 88 285 73 432 -40 399 -342 644 -741
602 -201 -20 -378 -120 -479 -268 -19 -28 -37 -51 -41 -51 -5 0 -8 15 -8 33 0
58 -30 160 -72 247 -33 68 -57 101 -122 165 -120 119 -235 169 -419 182 l-88
6 54 56 c102 104 164 230 192 386 18 102 19 165 5 255 -42 266 -198 462 -430
540 -90 30 -285 38 -390 16 -87 -19 -216 -78 -280 -129 -24 -20 -46 -35 -47
-33 -1 1 3 20 9 42 6 21 11 86 11 144 1 175 -48 304 -156 417 -65 68 -168 128
-239 139 -21 4 -40 10 -43 14 -2 3 20 14 50 24 74 23 193 105 254 174 59 67
120 178 151 277 31 99 38 273 16 386 -52 261 -239 460 -482 514 -137 31 -325
14 -472 -43 -10 -3 -6 7 11 29 36 47 82 152 96 217 16 76 14 224 -5 296 -24
93 -78 188 -142 248 l-57 53 110 1 c130 1 220 21 322 70 186 89 318 266 364
489 83 402 -135 772 -495 840 -44 9 -81 17 -84 19 -9 9 20 46 52 65 19 12 59
48 89 80 70 76 107 165 114 276 4 66 10 88 35 128 32 50 39 55 57 33 19 -23
146 -76 223 -92 96 -21 247 -14 343 16 196 61 343 202 410 397 73 209 53 446
-52 615 l-22 37 67 49 c126 93 381 257 387 250 1 -2 10 -30 20 -63 89 -314
388 -486 732 -420 243 46 430 228 493 480 21 82 29 253 14 310 l-7 28 224 -6
c123 -4 269 -13 324 -21 55 -8 124 -17 153 -21 l53 -8 -8 -46 c-15 -86 -9
-261 11 -321 79 -237 261 -370 506 -369 196 0 385 103 472 257 17 28 33 52 37
52 5 0 44 -31 88 -69 67 -59 81 -76 86 -108 16 -92 90 -207 172 -263 37 -25
44 -37 63 -102 12 -40 25 -88 28 -105 6 -32 6 -33 -29 -33 -52 0 -150 -33
-207 -70 -273 -175 -282 -631 -16 -805 28 -19 76 -41 106 -51 30 -9 56 -18 57
-19 2 -1 -9 -30 -23 -66 -16 -40 -46 -85 -79 -121 -62 -67 -100 -140 -117
-223 -12 -61 -52 -128 -144 -243 l-43 -52 -22 46 c-76 152 -287 213 -465 135
-160 -71 -245 -290 -183 -473 21 -63 71 -143 95 -152 28 -11 12 -24 -78 -66
-146 -68 -392 -150 -448 -150 -12 0 -15 16 -15 83 -1 93 -19 139 -77 194 -89
85 -247 89 -353 9 -43 -33 -85 -116 -92 -181 -3 -30 -8 -55 -10 -55 -2 0 -29
16 -61 36 -59 38 -162 136 -200 191 l-22 31 45 22 c89 43 139 132 139 251 1
65 -3 84 -29 135 -37 73 -102 120 -176 130 -38 5 -49 10 -45 21 16 41 85 130
142 182 l65 59 42 -23 c68 -39 150 -55 272 -55 125 0 216 18 286 57 59 32 77
51 94 99 24 72 -10 125 -124 193 -224 132 -389 181 -611 181 -311 0 -589 -140
-744 -374 -110 -165 -150 -307 -150 -531 0 -215 36 -381 136 -638 101 -257
238 -467 428 -658 143 -143 288 -247 460 -328 463 -217 1038 -238 1646 -60
1092 319 2050 1211 2388 2223 109 324 153 625 143 966 -7 205 -14 277 -48 450
-96 487 -392 1177 -701 1635 -302 446 -681 811 -1101 1061 -220 131 -498 256
-738 333 -500 158 -1103 225 -1719 190z"/>
    </g>
  </g>
</svg>
